<svg xmlns="http://www.w3.org/2000/svg" width="342" height="164"><defs><linearGradient id="a" x1=".988" x2="-.312" y1=".968" y2="-.458" gradientUnits="objectBoundingBox"><stop offset="0" stop-color="#f76b1c"/><stop offset="1" stop-color="#fad961"/></linearGradient><linearGradient id="c" x1=".5" x2=".5" y2="1" gradientUnits="objectBoundingBox"><stop offset="0" stop-color="#5ce9fd"/><stop offset="1" stop-color="#cb1b93"/></linearGradient><clipPath id="b"><rect width="342" height="164" fill="url(#a)" rx="4"/></clipPath></defs><path fill="#392e63" d="M4.145 0h333.71A4.075 4.075 0 0 1 342 4v156a4.075 4.075 0 0 1-4.145 4H4.145A4.075 4.075 0 0 1 0 160V4a4.075 4.075 0 0 1 4.145-4Z"/><g clip-path="url(#b)"><rect width="339" height="350" fill="url(#c)" rx="169.5" transform="rotate(-90 59 124)"/></g><g fill="#fff"><text font-family="SFProDisplay-Medium,SF Pro Display" font-size="17" font-weight="500" transform="translate(268 144)"><tspan x="0" y="0">09 - 18</tspan></text><text font-family="SFProDisplay-Thin,SF Pro Display" font-size="11" font-weight="200" transform="translate(268 119)"><tspan x="0" y="0">Expiry</tspan></text></g><text fill="#fff" font-family="Montserrat-Medium,Montserrat" font-size="14" font-weight="500" transform="translate(13 26)"><tspan x="0" y="0">FINPAY</tspan></text><text fill="#fff" font-family="Montserrat-Medium,Montserrat" font-size="12" font-weight="500" transform="translate(13 121)"><tspan x="0" y="0">Helen Anna</tspan></text><text fill="#f9f9f9" font-family="Montserrat-Medium,Montserrat" font-size="37" font-weight="500" transform="translate(210 48)"><tspan x="0" y="0">₹4250</tspan></text><text fill="#fff" font-family="Montserrat-Light,Montserrat" font-size="16" font-weight="300" transform="translate(13 77)"><tspan x="0" y="0">6R716376158</tspan></text></svg>